<?xml version="1.0" encoding="UTF-8"?>
<svg id="Layer_1" data-name="Layer 1" xmlns="http://www.w3.org/2000/svg" viewBox="0 0 62.87 50.51">
  <defs>
    <style>
      .cls-1 {
        fill: #231f20;
      }
    </style>
  </defs>
  <g>
    <g>
      <path class="cls-1" d="m25.37,13.05c-1.38,2.19-2.55,4.47-3.6,6.56-2.44-4.27-4.68-6.76-7.94-6.84H0v-6.56h13.66c5.29,0,8.89,2.94,11.7,6.84Z"/>
      <path class="cls-1" d="m46.45,33.53v6.56h-8.35l-.04-.33c-3.74-.86-6.51-3.38-8.77-6.52,1.39-2.18,2.55-4.46,3.6-6.55,2.48,4.34,4.75,6.84,8.1,6.84h5.45Z"/>
    </g>
    <g>
      <rect class="cls-1" x="46.45" y="33.53" width="8.21" height="6.56"/>
      <polygon class="cls-1" points="62.87 36.81 46.45 46.3 46.45 40.09 54.66 40.09 54.66 33.53 46.45 33.53 46.45 27.33 62.87 36.81"/>
    </g>
    <path class="cls-1" d="m46.45,6.2v6.56h-5.62c-4.38.11-6.92,4.57-10.57,11.85-3.2,6.41-6.78,13.56-13.66,15.15l-.04.33H0v-6.56h13.66c2.24,0,4-1.12,5.66-3.16,1.66-2.04,3.22-5,5.07-8.69,3.62-7.25,7.73-15.48,16.59-15.48h5.45Z"/>
    <g>
      <polygon class="cls-1" points="62.87 9.48 46.45 18.97 46.45 12.76 54.66 12.76 54.66 6.2 46.45 6.2 46.45 0 62.87 9.48"/>
      <rect class="cls-1" x="46.45" y="6.2" width="8.21" height="6.56"/>
    </g>
  </g>
  <circle class="cls-1" cx="28.32" cy="49.54" r=".97"/>
</svg>