<?xml version="1.0" encoding="UTF-8"?>
<svg id="Layer_1" data-name="Layer 1" xmlns="http://www.w3.org/2000/svg" viewBox="0 0 59.82 44.7">
  <defs>
    <style>
      .cls-1 {
        fill: none;
        stroke-width: 2px;
      }

      .cls-1, .cls-2 {
        stroke: #231f20;
        stroke-miterlimit: 10;
      }

      .cls-2 {
        fill: #231f20;
        stroke-width: .25px;
      }
    </style>
  </defs>
  <path class="cls-2" d="m5.59,13.37h0v17.95h0C2.58,31.33.12,28.88.12,25.86v-7.02c0-3.02,2.45-5.47,5.47-5.47Z"/>
  <polygon class="cls-2" points="24.93 .26 24.93 44.44 8.52 31.33 8.52 13.37 24.93 .26"/>
  <path class="cls-1" d="m42.88,6.41c8.8,0,15.94,7.14,15.94,15.94s-7.14,15.94-15.94,15.94"/>
  <path class="cls-1" d="m33.61,10.13c6.75,0,12.22,5.47,12.22,12.22s-5.47,12.22-12.22,12.22"/>
  <path class="cls-1" d="m27.86,15.5c3.78,0,6.85,3.07,6.85,6.85s-3.07,6.85-6.85,6.85"/>
</svg>